<?xml version="1.0" standalone="no"?>
<!DOCTYPE svg PUBLIC "-//W3C//DTD SVG 20010904//EN"
 "http://www.w3.org/TR/2001/REC-SVG-20010904/DTD/svg10.dtd">
<svg version="1.0" xmlns="http://www.w3.org/2000/svg"
 width="260.000000pt" height="260.000000pt" viewBox="0 0 260.000000 260.000000"
 preserveAspectRatio="xMidYMid meet">
<metadata>
Created by potrace 1.14, written by Peter Selinger 2001-2017
</metadata>
<g transform="translate(0.000000,260.000000) scale(0.100000,-0.100000)"
fill="#000000" stroke="none">
<path d="M0 1300 l0 -1300 1300 0 1300 0 0 1300 0 1300 -1300 0 -1300 0 0
-1300z m1796 737 c184 -60 346 -210 427 -393 49 -111 62 -178 62 -324 0 -158
-20 -243 -87 -374 -63 -122 -182 -238 -306 -299 l-93 -45 53 -12 c85 -18 189
-23 235 -11 23 6 65 27 93 46 l51 34 50 -105 c27 -58 49 -112 49 -119 0 -7
-16 -32 -36 -56 -85 -101 -186 -145 -318 -136 -80 5 -110 14 -291 87 -67 27
-97 34 -180 38 -100 4 -100 4 -170 -32 l-70 -37 -22 28 c-12 15 -30 41 -39 59
-16 30 -16 32 7 63 32 44 136 121 172 128 26 5 21 9 -49 33 -245 83 -407 267
-465 529 -58 264 13 532 189 714 99 102 197 160 337 198 104 28 290 22 401
-14z m-1196 -712 l0 -725 -165 0 -165 0 0 725 0 725 165 0 165 0 0 -725z"/>
<path d="M1490 1727 c-68 -15 -137 -54 -177 -101 -122 -138 -136 -415 -30
-572 122 -181 428 -192 559 -19 97 128 114 351 37 511 -67 142 -228 216 -389
181z"/>
</g>
</svg>
